<?xml version="1.0" encoding="UTF-8" standalone="no"?>
<!-- Created with Inkscape (http://www.inkscape.org/) -->

<svg
   xmlns:dc="http://purl.org/dc/elements/1.1/"
   xmlns:cc="http://creativecommons.org/ns#"
   xmlns:rdf="http://www.w3.org/1999/02/22-rdf-syntax-ns#"
   xmlns:svg="http://www.w3.org/2000/svg"
   xmlns="http://www.w3.org/2000/svg"
   xmlns:sodipodi="http://sodipodi.sourceforge.net/DTD/sodipodi-0.dtd"
   xmlns:inkscape="http://www.inkscape.org/namespaces/inkscape"
   width="512"
   height="300"
   viewBox="0 0 135.46666 79.375136"
   version="1.1"
   id="svg8"
   inkscape:version="0.92.4 (fd57863, 2020-04-02)"
   sodipodi:docname="des001.svg">
  <defs
     id="defs2" />
  <sodipodi:namedview
     id="base"
     pagecolor="#ffffff"
     bordercolor="#666666"
     borderopacity="1.0"
     inkscape:pageopacity="0.0"
     inkscape:pageshadow="2"
     inkscape:zoom="0.7"
     inkscape:cx="-85.751723"
     inkscape:cy="164.0511"
     inkscape:document-units="mm"
     inkscape:current-layer="layer1"
     showgrid="false"
     units="px"
     inkscape:window-width="1920"
     inkscape:window-height="995"
     inkscape:window-x="1920"
     inkscape:window-y="0"
     inkscape:window-maximized="1" />
  <metadata
     id="metadata5">
    <rdf:RDF>
      <cc:Work
         rdf:about="">
        <dc:format>image/svg+xml</dc:format>
        <dc:type
           rdf:resource="http://purl.org/dc/dcmitype/StillImage" />
        <dc:title></dc:title>
      </cc:Work>
    </rdf:RDF>
  </metadata>
  <g
     inkscape:label="レイヤー 1"
     inkscape:groupmode="layer"
     id="layer1"
     transform="translate(0,-217.62476)">
    <g
       id="g823"
       transform="matrix(0.57622833,0,0,0.57622833,28.703466,125.20242)">
      <path
         inkscape:connector-curvature="0"
         id="path826"
         d="m 30.09819,215.03978 v -1.17136 h 3.740815 3.740815 v 1.17136 1.17137 H 33.839005 30.09819 Z m -15.07662,0 v -0.45343 h 6.97152 6.971521 v 0.45343 0.45343 H 21.99309 15.02157 Z m 23.691834,0 v -0.45343 h 6.990411 6.99041 v 0.45343 0.45343 h -6.99041 -6.990411 z m -5.327833,-3.02288 v -0.71793 h 0.453434 0.453434 v 0.71793 0.71794 h -0.453434 -0.453434 z m -6.037063,-1.6456 c -0.557953,-0.15021 -0.998781,-0.56 -1.186219,-1.1027 l -0.08831,-0.25569 v -10.20223 c 0,-9.85897 0.0026,-10.20921 0.07052,-10.41004 0.178528,-0.52616 0.592328,-0.93987 1.119739,-1.11949 0.199903,-0.0681 0.451185,-0.0708 6.593663,-0.0708 h 6.385836 l 0.226717,0.0854 c 0.480962,0.18112 0.854081,0.54519 1.0462,1.02082 l 0.08738,0.21632 0.0098,10.20082 c 0.0089,9.25002 0.0042,10.22018 -0.05056,10.40844 -0.185703,0.63881 -0.621033,1.06722 -1.251251,1.23138 -0.317028,0.0826 -12.656379,0.0805 -12.963493,-0.002 z m 12.960349,-0.97208 c 0.115735,-0.068 0.215361,-0.16766 0.283397,-0.2834 l 0.104916,-0.17848 0.0097,-10.04602 c 0.0068,-6.99371 -0.0026,-10.09125 -0.03036,-10.19491 -0.02208,-0.0819 -0.09909,-0.21421 -0.171203,-0.29403 -0.262148,-0.29017 0.336704,-0.26624 -6.664453,-0.26624 -5.707326,0 -6.289084,0.006 -6.399019,0.0611 -0.170688,0.0862 -0.286897,0.20002 -0.370215,0.36249 -0.07014,0.13677 -0.07189,0.38689 -0.07189,10.25096 0,9.93392 0.001,10.11329 0.07335,10.25455 0.08989,0.17619 0.307947,0.37325 0.446904,0.40388 0.05677,0.0125 0.120224,0.0285 0.141004,0.0356 0.02078,0.007 2.834895,0.01 6.253585,0.006 l 6.215799,-0.007 z m -6.76359,-3.31953 c -0.88741,-0.12997 -1.580478,-0.79414 -1.769347,-1.69557 -0.264872,-1.26414 0.755877,-2.49387 2.070046,-2.49387 0.984344,0 1.826195,0.67424 2.055317,1.64613 0.08229,0.34906 0.0541,0.81568 -0.0699,1.15678 -0.34454,0.94777 -1.304928,1.53025 -2.286116,1.38653 z m 0.815,-1.01054 c 0.246502,-0.12717 0.435278,-0.31744 0.555798,-0.56018 0.08979,-0.18085 0.109268,-0.26902 0.111028,-0.50271 0.0036,-0.47604 -0.2307,-0.85578 -0.669794,-1.08562 -0.166324,-0.0871 -0.244331,-0.10329 -0.499399,-0.10391 -0.2555,-5.2e-4 -0.335642,0.0157 -0.517768,0.10508 -0.262857,0.12908 -0.530233,0.4159 -0.612338,0.65686 -0.09283,0.27244 -0.07852,0.66995 0.0327,0.90885 0.11925,0.25614 0.387033,0.51419 0.635743,0.61263 0.266886,0.10565 0.727917,0.0908 0.964027,-0.031 z m -5.055583,-7.01403 v -0.47248 h 4.554377 4.554378 l -0.01062,0.46287 -0.01062,0.46288 -4.543771,0.01 -4.543766,0.01 z m 0,-3.15529 v -0.45343 h 4.553216 4.553211 v 0.45343 0.45343 H 33.8579 29.304684 Z m 0,-3.13624 v -0.45343 h 4.553216 4.553211 v 0.45343 0.45343 H 33.8579 29.304684 Z m -7.009306,12.67116 c -2.430228,-0.19688 -4.590742,-1.18014 -6.253585,-2.84606 -1.53519,-1.53803 -2.463447,-3.42332 -2.781761,-5.64974 -0.096,-0.67143 -0.08765,-1.87538 0.01781,-2.56945 0.166928,-1.09861 0.439527,-1.98007 0.911481,-2.94731 0.614567,-1.25952 1.590678,-2.49105 2.607731,-3.29009 0.22278,-0.17503 0.233168,-0.19047 0.213601,-0.31736 -0.166309,-1.07854 -0.100433,-2.55902 0.163981,-3.68525 0.805549,-3.43116 3.34504,-6.22861 6.651072,-7.32668 1.17667,-0.39081 2.018036,-0.52736 3.249601,-0.52739 0.930724,-1e-5 1.62536,0.0835 2.472897,0.29715 2.425515,0.61157 4.559225,2.11352 5.941035,4.18199 l 0.320157,0.47925 0.167761,-0.0719 c 1.508781,-0.64675 3.437996,-0.78148 5.103146,-0.3564 2.556319,0.65257 4.66449,2.5151 5.605524,4.95237 l 0.161867,0.41923 0.500591,0.13527 c 3.433555,0.92787 6.125781,3.74159 6.91382,7.22584 0.179195,0.79228 0.224363,1.22444 0.225092,2.1538 0.001,1.18811 -0.122738,1.99104 -0.468538,3.04177 -1.228889,3.73401 -4.552874,6.35525 -8.477497,6.68523 -0.266105,0.0224 -0.925002,0.0407 -1.464206,0.0407 h -0.980381 v -0.44766 -0.44766 l 1.199704,-0.0235 c 0.742663,-0.0146 1.365253,-0.046 1.634248,-0.0825 1.88552,-0.25599 3.678329,-1.1379 5.018876,-2.46885 0.751988,-0.7466 1.273322,-1.47566 1.747094,-2.44324 0.620429,-1.26708 0.884244,-2.42658 0.881203,-3.87306 -0.0031,-1.41949 -0.277118,-2.59491 -0.903301,-3.87307 -0.854081,-1.74332 -2.280883,-3.16481 -4.043092,-4.02804 -0.575896,-0.2821 -1.465539,-0.59305 -1.996543,-0.69783 -0.452928,-0.0894 -0.51467,-0.14613 -0.665837,-0.61197 -0.241442,-0.74402 -0.739257,-1.66 -1.23698,-2.27604 -0.310972,-0.38489 -0.943705,-0.99375 -1.331606,-1.28136 -2.143493,-1.5893 -4.91396,-1.88158 -7.335951,-0.77393 -0.583149,0.26669 -0.662093,0.23732 -1.030256,-0.38329 -1.50495,-2.5369 -4.041098,-4.17904 -6.974942,-4.51624 -0.574818,-0.0661 -2.01321,-0.0247 -2.54223,0.0732 -1.518106,0.28074 -2.79347,0.8339 -3.983714,1.72784 -2.73289,2.05257 -4.122239,5.45944 -3.590127,8.80348 0.02619,0.16469 0.03556,0.35857 0.02078,0.43085 -0.02879,0.14085 -0.04342,0.15552 -0.526947,0.52937 -0.465743,0.36011 -1.142998,1.05523 -1.53001,1.57039 -0.897542,1.19474 -1.445592,2.46669 -1.700394,3.94637 -0.08256,0.47949 -0.115017,1.83138 -0.05635,2.34744 0.226342,1.99094 1.055551,3.74068 2.457703,5.18609 0.727647,0.75009 1.532623,1.33806 2.436809,1.77989 1.440584,0.70395 2.564603,0.92286 4.752661,0.9256 l 0.784061,0.001 v 0.45343 0.45343 l -1.067453,-0.006 c -0.587101,-0.004 -1.13547,-0.0119 -1.2186,-0.0186 z"
         style="fill:#424242;fill-opacity:1;stroke-width:0.03778601" />
      <path
         inkscape:connector-curvature="0"
         id="path852"
         d="m 75.287935,210.58897 c -0.46141,-0.39689 -0.587858,-0.71489 -0.667851,-1.67952 -0.05875,-0.70874 0.0087,-1.44922 0.166901,-1.83111 0.278614,-0.67264 1.146673,-1.25159 1.876558,-1.25159 0.428794,0 0.43058,-0.0476 0.43058,-11.45569 0,-12.54357 -0.02009,-12.32817 1.247984,-13.39517 l 0.674902,-0.56789 h 20.344785 20.344766 l 0.6749,0.56789 c 1.26806,1.067 1.24799,0.8516 1.24799,13.39517 0,11.40816 0.002,11.45569 0.43058,11.45569 0.72988,0 1.59793,0.57895 1.87655,1.25159 0.15819,0.38189 0.22568,1.12237 0.16691,1.83111 -0.08,0.96463 -0.20645,1.28263 -0.66786,1.67952 l -0.56918,0.48959 H 99.361794 75.857111 Z m 47.474435,-1.10314 c 0.21698,-0.56544 0.14061,-1.88138 -0.12458,-2.14656 -0.18729,-0.1873 -2.32128,-0.25209 -8.30305,-0.25209 h -8.05097 l -0.2011,0.52895 c -0.11061,0.29092 -0.44529,0.62179 -0.74374,0.73526 -0.30437,0.11572 -2.92869,0.2063 -5.977136,0.2063 -3.048462,0 -5.672777,-0.0906 -5.977157,-0.2063 -0.298447,-0.11347 -0.633123,-0.44434 -0.743732,-0.73526 L 92.4398,207.08718 h -8.050969 c -5.981769,0 -8.115757,0.0648 -8.303055,0.25209 -0.265187,0.26518 -0.34156,1.58112 -0.124575,2.14656 0.115206,0.30024 2.372371,0.3323 23.400593,0.3323 21.028196,0 23.285366,-0.0321 23.400576,-0.3323 z m -2.39336,-15.22261 v -11.56353 l -0.51563,-0.51563 -0.51563,-0.51563 H 99.361794 79.385818 l -0.515631,0.51563 -0.51563,0.51563 v 11.56353 11.56353 h 21.007237 21.007216 z m -24.578455,6.05219 c 0,-0.0419 1.305691,-3.0965 2.901529,-6.78814 2.891626,-6.68918 2.903806,-6.71229 3.571226,-6.77789 0.36834,-0.0362 0.66971,-0.0295 0.66971,0.015 0,0.0445 -1.30079,3.09914 -2.89062,6.78815 l -2.890616,6.70727 -0.68061,0.0658 c -0.374343,0.0362 -0.680619,0.0316 -0.680619,-0.0102 z m 8.823035,-1.80909 c 0,-0.80604 0.0821,-0.90351 2.43336,-2.88737 2.34598,-1.97944 2.41823,-2.065 2.01182,-2.38241 -0.23184,-0.18108 -1.32465,-1.0855 -2.42845,-2.00982 -1.88512,-1.57859 -2.00721,-1.72911 -2.01182,-2.48026 -0.006,-0.97156 -0.21463,-1.09395 3.43112,2.01246 3.15935,2.69198 3.25132,2.92794 1.65916,4.25714 -0.54831,0.45774 -1.91903,1.618 -3.04605,2.57836 l -2.04914,1.74611 z m -13.618887,-1.87024 c -2.357555,-1.97387 -2.951011,-2.57729 -2.962484,-3.01219 -0.01429,-0.54132 0.105567,-0.6547 5.495071,-5.1993 l 0.582692,-0.49134 v 0.82836 c 0,0.7965 -0.08887,0.90306 -2.3108,2.77079 -1.270938,1.06834 -2.305447,2.00381 -2.298913,2.07882 0.0064,0.075 1.041051,0.98716 2.298913,2.02702 2.153331,1.78013 2.287719,1.9367 2.298914,2.67842 0.0064,0.43328 -0.02572,0.78778 -0.0717,0.78778 -0.04597,0 -1.410235,-1.11076 -3.031713,-2.46836 z"
         style="fill:#424242;fill-opacity:1;stroke-width:0.21007229" />
      <path
         inkscape:connector-curvature="0"
         id="path839"
         d="m 30.760124,283.03598 c -4.917407,-0.71609 -9.249824,-2.89522 -12.785482,-6.43088 -8.8596121,-8.85961 -8.8596121,-22.8825 0,-31.74211 6.583496,-6.5835 16.15299,-8.43534 24.78265,-4.79581 4.9589,2.0914 9.66387,6.79637 11.75527,11.75527 3.63953,8.62966 1.7877,18.19916 -4.79581,24.78265 -5.02453,5.02454 -12.10936,7.428 -18.956628,6.43088 z m 5.968578,-1.19895 c 0.14948,-0.14962 1.39742,-5.08021 1.60289,-6.33294 l 0.14388,-0.87725 -1.16875,0.16228 c -0.64281,0.0893 -2.76513,0.17575 -4.71627,0.19222 l -3.547524,0.0299 -0.365677,0.60132 c -0.443146,0.72869 -1.507798,1.26706 -2.505702,1.26706 -1.504099,0 -2.721959,-1.0107 -3.002304,-2.49161 -0.105434,-0.55695 -0.255953,-0.64764 -2.193195,-1.32144 l -2.079991,-0.72346 -0.03737,1.27161 c -0.02056,0.69938 -0.04298,1.51168 -0.04984,1.8051 -0.01013,0.43343 0.29175,0.77974 1.609487,1.84643 2.749424,2.22562 6.235708,3.82673 9.770736,4.48731 1.53496,0.28683 6.276,0.34732 6.53963,0.0834 z m 5.99717,-1.75071 c 3.16371,-1.48178 5.64412,-3.40784 7.70365,-5.98191 1.14209,-1.42745 3.10023,-4.71582 2.91716,-4.8989 -0.041,-0.041 -1.37332,0.5746 -2.96075,1.36794 -3.19836,1.59844 -5.61797,2.52504 -8.62831,3.30425 l -2.00269,0.51838 -0.53082,2.48759 c -0.29194,1.36818 -0.63434,2.84638 -0.76088,3.2849 -0.43657,1.51292 -0.42517,1.52297 1.21283,1.06945 0.79482,-0.22005 2.16724,-0.73833 3.04981,-1.1517 z m -25.025785,-6.95113 v -1.35251 l -1.299409,-0.64077 c -0.714676,-0.35243 -1.351084,-0.64077 -1.414241,-0.64077 -0.06315,0 0.129894,0.42607 0.429002,0.94681 0.590393,1.02787 2.040816,3.03976 2.191442,3.03976 0.05127,0 0.09321,-0.60863 0.09321,-1.35252 z m 18.453105,0.54151 c 1.44538,-0.14142 2.25194,-0.30914 2.39912,-0.4989 0.2118,-0.27307 0.30025,-1.00072 0.59725,-4.91378 l 0.13197,-1.7388 -0.57477,-0.21852 c -2.31728,-0.88104 -2.59065,-4.37938 -0.42955,-5.49693 0.60027,-0.31041 0.60471,-0.32472 0.48819,-1.57253 -0.18953,-2.02967 -1.1082,-6.1733 -1.89661,-8.55456 l -0.73081,-2.20735 -1.09631,0.0585 c -0.60297,0.0322 -1.98341,0.23823 -3.06765,0.45795 -1.936769,0.39249 -1.987184,0.41713 -2.875465,1.40511 -3.807197,4.23451 -6.855958,9.31291 -8.479467,14.12444 -0.736139,2.18167 -1.608958,6.06817 -1.453659,6.47287 0.04938,0.12866 0.984678,0.53686 2.078457,0.90712 l 1.988689,0.67319 0.674502,-0.71518 c 1.632738,-1.73121 4.523429,-1.15191 5.179537,1.03798 0.194798,0.65017 0.329154,0.78448 0.850748,0.85039 1.309398,0.16547 4.128218,0.13329 6.215828,-0.071 z m 6.66229,-1.31762 c 3.30454,-0.94832 7.51632,-2.85352 10.43333,-4.7195 1.05913,-0.67751 1.05974,-0.6785 1.44248,-2.34654 0.59296,-2.58419 0.51697,-7.20751 -0.16016,-9.74383 -0.27839,-1.04275 -0.78066,-2.5013 -1.11616,-3.24122 -0.55324,-1.22016 -0.69879,-1.38339 -1.56429,-1.75439 -0.52487,-0.22498 -1.80137,-0.64833 -2.83666,-0.94077 -1.59675,-0.45103 -1.89709,-0.48693 -1.97953,-0.23661 -0.20423,0.62017 -1.37302,1.56226 -2.10963,1.70046 -1.52959,0.28695 -3.30534,-0.74168 -3.60053,-2.08567 -0.14164,-0.64487 -0.64379,-0.81678 -2.37084,-0.81162 -1.64445,0.005 -1.65124,0.0262 -0.83103,2.60987 0.75611,2.38172 1.58668,6.17723 1.82004,8.31719 0.0991,0.9088 0.22771,1.28854 0.45886,1.35496 0.84968,0.24416 1.72787,0.88045 2.0537,1.48799 0.81956,1.52815 0.23225,3.48767 -1.26562,4.22271 l -0.72381,0.35519 -0.14012,2.03675 c -0.0771,1.12021 -0.2055,2.60107 -0.2854,3.29079 l -0.14527,1.25403 0.61318,-0.13179 c 0.33724,-0.0725 1.3756,-0.35058 2.30746,-0.618 z m -24.500734,-3.76373 c 1.07647,-5.60406 4.125322,-11.97319 8.07567,-16.87029 0.592222,-0.73416 1.076766,-1.38316 1.076766,-1.44223 0,-0.17342 -1.939283,0.62429 -4.086233,1.68085 l -1.993285,0.98095 0.0583,0.9546 c 0.06757,1.10642 -0.374945,2.1154 -1.18959,2.71241 -0.777131,0.56951 -2.281533,0.65228 -3.193836,0.17572 l -0.737212,-0.3851 -1.931931,1.70211 -1.931931,1.7021 0.116229,2.10824 c 0.131229,2.38033 0.942787,5.89396 1.484318,6.42636 0.482551,0.47441 3.496032,2.1707 3.724444,2.09649 0.102319,-0.0332 0.34005,-0.86224 0.528291,-1.84221 z m -2.760353,-13.54218 c -0.391216,-1.33227 0.271105,-3.0274 1.417454,-3.62779 0.916408,-0.47996 2.386846,-0.43415 3.104898,0.0967 l 0.584994,0.43251 2.455912,-1.18268 c 1.350752,-0.65047 3.308045,-1.46475 4.349531,-1.80952 1.752228,-0.58003 2.005246,-0.73375 3.388588,-2.05862 0.82223,-0.78749 1.89861,-1.77091 2.39194,-2.18539 l 0.89699,-0.75361 -0.56755,-1.03365 c -1.37224,-2.49925 -2.00276,-3.32238 -2.54633,-3.32419 -1.21906,-0.004 -4.556645,1.04053 -6.653227,2.08234 -5.619457,2.79233 -9.645295,7.76222 -11.176116,13.7969 -0.266533,1.05071 -0.484606,2.03942 -0.484606,2.19715 0,0.16202 0.642688,-0.26101 1.477292,-0.97237 1.165096,-0.99305 1.452554,-1.3434 1.36023,-1.65781 z m 36.031547,-6.06769 c 0,-0.38846 -2.48237,-3.25287 -3.75673,-4.33489 -1.67222,-1.41981 -3.05984,-2.30956 -5.09058,-3.2641 -1.53896,-0.72338 -1.62353,-0.74043 -2.20684,-0.44484 -0.93787,0.47524 -4.9116,3.29425 -4.84853,3.43959 0.0308,0.071 0.30684,0.70779 0.61335,1.41497 l 0.55729,1.28576 2.18672,-0.009 2.18672,-0.009 0.48965,-0.7206 c 0.60053,-0.88374 1.95095,-1.4636 3.00881,-1.29193 1.26611,0.20546 2.04089,0.98671 2.54563,2.56689 0.0619,0.19377 0.47451,0.43262 0.96549,0.5589 0.47158,0.12127 1.35075,0.38799 1.95372,0.59269 1.30981,0.44466 1.3953,0.45791 1.3953,0.21615 z m -18.1389,-1.48383 c 0.38371,-0.0572 1.02528,-0.15541 1.42571,-0.21833 l 0.72805,-0.1144 -0.42005,-0.99425 c -0.23104,-0.54684 -0.49567,-0.96906 -0.58808,-0.93825 -0.29928,0.0998 -2.71472,2.23688 -2.72769,2.41338 -0.007,0.0941 0.18925,0.12265 0.43592,0.0634 0.24667,-0.0592 0.76243,-0.15443 1.14614,-0.21159 z m 4.83372,-6.55734 c 0.52074,-0.33076 0.94681,-0.66528 0.94681,-0.74339 0,-0.24433 -2.20435,-0.61852 -4.35177,-0.73869 l -2.05949,-0.11527 0.6863,1.07594 c 0.37747,0.59176 0.88136,1.45981 1.11975,1.92899 l 0.43344,0.85306 1.13907,-0.82964 c 0.6265,-0.4563 1.56515,-1.10025 2.08589,-1.431 z"
         style="fill:#424242;fill-opacity:1;stroke-width:0.19932856" />
      <path
         inkscape:connector-curvature="0"
         id="path865"
         d="m 77.44661,279.54653 c -1.189696,-0.42672 -1.821278,-0.96042 -2.374438,-2.00647 l -0.485323,-0.91775 0.05637,-16.12117 0.05637,-16.12117 0.578755,-0.87445 c 0.318311,-0.48094 0.980981,-1.08932 1.472593,-1.35194 l 0.893846,-0.47749 h 21.773391 21.773366 l 0.89384,0.47749 c 0.49161,0.26262 1.15428,0.87104 1.4726,1.35205 l 0.57875,0.87456 v 16.33446 16.33447 l -0.57875,0.87455 c -0.31832,0.48101 -0.98099,1.08944 -1.4726,1.35205 l -0.89384,0.47749 -21.457806,0.0454 c -18.045799,0.0382 -21.589714,-0.002 -22.287162,-0.25207 z m 33.54198,-5.78888 v -0.63112 h -5.99556 -5.995566 v 0.63112 0.63111 h 5.995566 5.99556 z m -17.932338,-4.47212 4.679018,-4.68249 -4.723783,-4.72029 c -4.710019,-4.70652 -4.725071,-4.71912 -5.163633,-4.32223 l -0.439843,0.39805 4.322177,4.32585 4.322169,4.32585 -4.305687,4.30185 c -4.05243,4.04881 -4.285626,4.32402 -3.964492,4.67887 0.187668,0.20737 0.398323,0.37703 0.468133,0.37703 0.06981,0 2.23248,-2.10712 4.805941,-4.68249 z m 29.292368,-18.45831 v -0.63111 H 99.418204 76.48778 v 0.63111 0.63111 h 22.930424 22.930416 z m -11.45851,-3.00218 c 0.0659,-0.26276 0.0914,-1.13843 0.0566,-1.94593 l -0.0633,-1.4682 h -1.89333 -1.89334 l -0.062,1.66437 c -0.0341,0.91541 -0.0134,1.79107 0.046,1.94594 0.0785,0.20465 0.59718,0.28155 1.89879,0.28155 1.68651,0 1.79773,-0.0278 1.91065,-0.47773 z m -3.05708,-1.52079 v -1.15704 h 1.15704 1.15704 v 1.15704 1.15704 h -1.15704 -1.15704 z m 8.15987,-0.0606 0.0606,-1.95392 -1.95393,0.0606 -1.95392,0.0606 -0.0633,1.4682 c -0.10687,2.47866 -0.131,2.45018 2.01526,2.37917 l 1.83471,-0.0607 z m -3.11098,0.0606 v -1.15704 h 1.15705 1.15704 v 1.15704 1.15704 h -1.15704 -1.15705 z m 8.30966,0 v -1.89334 h -1.89334 -1.89334 l -0.062,1.66437 c -0.0341,0.91541 -0.012,1.79479 0.0491,1.95417 0.0853,0.22236 0.54038,0.27565 1.9554,0.22897 l 1.84418,-0.0608 z m -3.05038,0 v -1.15704 h 1.15704 1.15704 v 1.15704 1.15704 h -1.15704 -1.15704 z"
         style="fill:#424242;fill-opacity:1;stroke-width:0.21037084" />
    </g>
  </g>
</svg>
