<?xml version="1.0" encoding="UTF-8" standalone="no"?>
<!-- Created with Inkscape (http://www.inkscape.org/) -->

<svg
   xmlns:dc="http://purl.org/dc/elements/1.1/"
   xmlns:cc="http://creativecommons.org/ns#"
   xmlns:rdf="http://www.w3.org/1999/02/22-rdf-syntax-ns#"
   xmlns:svg="http://www.w3.org/2000/svg"
   xmlns="http://www.w3.org/2000/svg"
   xmlns:sodipodi="http://sodipodi.sourceforge.net/DTD/sodipodi-0.dtd"
   xmlns:inkscape="http://www.inkscape.org/namespaces/inkscape"
   width="192.8mm"
   height="192.8mm"
   viewBox="0 0 192.8 192.80001"
   version="1.1"
   id="svg8"
   inkscape:version="0.92.4 (f8dce91, 2019-08-02)"
   sodipodi:docname="rbpy.svg">
  <defs
     id="defs2" />
  <sodipodi:namedview
     id="base"
     pagecolor="#ffffff"
     bordercolor="#666666"
     borderopacity="1.0"
     inkscape:pageopacity="0.0"
     inkscape:pageshadow="2"
     inkscape:zoom="0.7"
     inkscape:cx="65.119016"
     inkscape:cy="231.42775"
     inkscape:document-units="mm"
     inkscape:current-layer="layer1"
     showgrid="false"
     inkscape:window-width="1920"
     inkscape:window-height="968"
     inkscape:window-x="0"
     inkscape:window-y="27"
     inkscape:window-maximized="1"
     fit-margin-top="0"
     fit-margin-left="0"
     fit-margin-right="0"
     fit-margin-bottom="0" />
  <metadata
     id="metadata5">
    <rdf:RDF>
      <cc:Work
         rdf:about="">
        <dc:format>image/svg+xml</dc:format>
        <dc:type
           rdf:resource="http://purl.org/dc/dcmitype/StillImage" />
        <dc:title></dc:title>
      </cc:Work>
    </rdf:RDF>
  </metadata>
  <g
     inkscape:label="レイヤー 1"
     inkscape:groupmode="layer"
     id="layer1"
     transform="translate(62.808342,-47.904793)">
    <g
       id="g940"
       transform="rotate(-15,-96.769043,548.29317)">
      <path
         transform="matrix(0.81322838,0,0,0.48938072,40.739152,74.118082)"
         inkscape:transform-center-y="-1.2150641"
         d="m 86.605709,170.85521 -8.600872,0 -8.600872,0 4.300436,-7.44857 4.300436,-7.44858 4.300436,7.44858 z"
         inkscape:randomized="0"
         inkscape:rounded="0"
         inkscape:flatsided="false"
         sodipodi:arg2="1.5707963"
         sodipodi:arg1="0.52359878"
         sodipodi:r2="4.9657159"
         sodipodi:r1="9.9314318"
         sodipodi:cy="165.8895"
         sodipodi:cx="78.004837"
         sodipodi:sides="3"
         id="path848"
         style="opacity:1;fill:#cccccc;fill-opacity:1;stroke:none;stroke-width:2.37772465;stroke-linejoin:miter;stroke-miterlimit:7;stroke-dasharray:none;stroke-dashoffset:0;stroke-opacity:0"
         sodipodi:type="star" />
      <path
         transform="matrix(0.81322839,0,0,0.48938072,54.728098,74.118082)"
         inkscape:transform-center-y="-1.2150641"
         d="m 86.605709,170.85521 -8.600872,0 -8.600872,0 4.300436,-7.44857 4.300436,-7.44858 4.300436,7.44858 z"
         inkscape:randomized="0"
         inkscape:rounded="0"
         inkscape:flatsided="false"
         sodipodi:arg2="1.5707963"
         sodipodi:arg1="0.52359878"
         sodipodi:r2="4.9657159"
         sodipodi:r1="9.9314318"
         sodipodi:cy="165.8895"
         sodipodi:cx="78.004837"
         sodipodi:sides="3"
         id="path848-3"
         style="opacity:1;fill:#cccccc;fill-opacity:1;stroke:none;stroke-width:2.37772465;stroke-linejoin:miter;stroke-miterlimit:7;stroke-dasharray:none;stroke-dashoffset:0;stroke-opacity:0"
         sodipodi:type="star" />
      <path
         transform="matrix(0.81322839,0,0,0.48938072,68.717045,74.118082)"
         inkscape:transform-center-y="-1.2150641"
         d="m 86.605709,170.85521 -8.600872,0 -8.600872,0 4.300436,-7.44857 4.300436,-7.44858 4.300436,7.44858 z"
         inkscape:randomized="0"
         inkscape:rounded="0"
         inkscape:flatsided="false"
         sodipodi:arg2="1.5707963"
         sodipodi:arg1="0.52359878"
         sodipodi:r2="4.9657159"
         sodipodi:r1="9.9314318"
         sodipodi:cy="165.8895"
         sodipodi:cx="78.004837"
         sodipodi:sides="3"
         id="path848-6"
         style="opacity:1;fill:#cccccc;fill-opacity:1;stroke:none;stroke-width:2.37772465;stroke-linejoin:miter;stroke-miterlimit:7;stroke-dasharray:none;stroke-dashoffset:0;stroke-opacity:0"
         sodipodi:type="star" />
      <path
         inkscape:transform-center-x="2.0346628e-06"
         transform="matrix(-0.81322839,0,0,-0.48938072,174.60512,234.0542)"
         inkscape:transform-center-y="1.2150597"
         d="m 86.605709,170.85521 -8.600872,0 -8.600872,0 4.300436,-7.44857 4.300436,-7.44858 4.300436,7.44858 z"
         inkscape:randomized="0"
         inkscape:rounded="0"
         inkscape:flatsided="false"
         sodipodi:arg2="1.5707963"
         sodipodi:arg1="0.52359878"
         sodipodi:r2="4.9657159"
         sodipodi:r1="9.9314318"
         sodipodi:cy="165.8895"
         sodipodi:cx="78.004837"
         sodipodi:sides="3"
         id="path848-3-7"
         style="opacity:1;fill:#e6e6e6;fill-opacity:1;stroke:none;stroke-width:2.37772465;stroke-linejoin:miter;stroke-miterlimit:7;stroke-dasharray:none;stroke-dashoffset:0;stroke-opacity:0"
         sodipodi:type="star" />
      <path
         inkscape:transform-center-x="1.0346629e-06"
         transform="matrix(-0.81322839,0,0,-0.48938072,188.59407,234.0542)"
         inkscape:transform-center-y="1.2150617"
         d="m 86.605709,170.85521 -8.600872,0 -8.600872,0 4.300436,-7.44857 4.300436,-7.44858 4.300436,7.44858 z"
         inkscape:randomized="0"
         inkscape:rounded="0"
         inkscape:flatsided="false"
         sodipodi:arg2="1.5707963"
         sodipodi:arg1="0.52359878"
         sodipodi:r2="4.9657159"
         sodipodi:r1="9.9314318"
         sodipodi:cy="165.8895"
         sodipodi:cx="78.004837"
         sodipodi:sides="3"
         id="path848-3-5"
         style="opacity:1;fill:#e6e6e6;fill-opacity:1;stroke:none;stroke-width:2.37772465;stroke-linejoin:miter;stroke-miterlimit:7;stroke-dasharray:none;stroke-dashoffset:0;stroke-opacity:0"
         sodipodi:type="star" />
      <path
         sodipodi:nodetypes="ccccc"
         inkscape:connector-curvature="0"
         id="path896"
         d="m 111.16937,157.73133 6.99211,21.5105 -20.989591,-21.5105 h 6.998741 z"
         inkscape:transform-center-y="2.0203606"
         style="opacity:1;fill:#e6e6e6;fill-opacity:1;stroke:none;stroke-width:1.5;stroke-linejoin:miter;stroke-miterlimit:7;stroke-dasharray:none;stroke-dashoffset:0;stroke-opacity:0" />
      <path
         sodipodi:nodetypes="ccccc"
         inkscape:connector-curvature="0"
         id="path848-3-3"
         d="m 111.16938,157.73133 6.99447,-1e-5 h 6.99447 l -6.99684,21.51051 z"
         inkscape:transform-center-y="1.2150597"
         style="opacity:1;fill:#f9f9f9;fill-opacity:1;stroke:none;stroke-width:1.5;stroke-linejoin:miter;stroke-miterlimit:7;stroke-dasharray:none;stroke-dashoffset:0;stroke-opacity:0" />
      <path
         inkscape:transform-center-x="2e-06"
         sodipodi:nodetypes="ccccc"
         inkscape:connector-curvature="0"
         id="path896-5"
         d="m 125.15833,157.73133 -6.99212,21.5105 20.98959,-21.5105 h -6.99874 z"
         inkscape:transform-center-y="2.0203606"
         style="opacity:1;fill:#e6e6e6;fill-opacity:1;stroke:none;stroke-width:1.5;stroke-linejoin:miter;stroke-miterlimit:7;stroke-dasharray:none;stroke-dashoffset:0;stroke-opacity:0" />
    </g>
    <path
       style="opacity:1;fill:#cccccc;fill-opacity:1;stroke:none;stroke-width:1.50000012;stroke-linejoin:miter;stroke-miterlimit:7;stroke-dasharray:none;stroke-dashoffset:0;stroke-opacity:0"
       d="m 107.60672,103.97318 a 16.495456,16.495456 0 0 0 -16.495474,16.49548 16.495456,16.495456 0 0 0 16.495474,16.49512 16.495456,16.495456 0 0 0 14.28975,-8.29649 l -0.97859,-0.55952 -6.13815,-3.57849 a 8.2477278,8.2477278 0 0 1 -7.17301,4.18712 8.2477278,8.2477278 0 0 1 -8.247734,-8.24774 8.2477278,8.2477278 0 0 1 8.247734,-8.24774 8.2477278,8.2477278 0 0 1 7.16823,4.18916 l 6.14293,-3.58087 0.98469,-0.56297 a 16.495456,16.495456 0 0 0 -14.29585,-8.29306 z"
       id="path1129"
       inkscape:connector-curvature="0" />
    <g
       id="g1108"
       transform="matrix(0.86859748,-0.23273999,0.23273999,0.86859748,15.177896,82.48179)"
       style="stroke-width:1.11205232">
      <path
         id="path1077"
         transform="scale(0.26458333)"
         d="m 261.32617,613.76758 -0.14258,3.11328 c -0.0785,1.7125 -0.14713,6.44309 -0.15039,10.51172 -0.009,7.84286 -0.15927,9.49191 -1.07812,11.91992 -1.28482,3.39504 -3.87746,5.03851 -8.81641,5.5918 -1.82601,0.20454 -6.70323,0.31879 -37.20508,0.87109 -12.9672,0.23482 -13.64836,0.30364 -16.33398,1.625 -2.00049,0.9843 -3.58729,2.57572 -4.55078,4.5625 -1.43976,2.96874 -1.41545,2.52081 -1.41016,26.60547 0.005,21.1499 0.0151,21.73585 0.4336,22.6582 0.63707,1.40395 1.61941,2.53755 3.11914,3.60156 4.28953,3.04332 10.83797,5.00575 19.28711,5.7793 1.13683,0.10432 6.03243,0.15927 10.8789,0.1211 9.42282,-0.0744 11.3191,-0.231 16.31836,-1.33594 7.72817,-1.70808 13.20293,-4.88599 14.50586,-8.41992 0.17877,-0.48469 0.25863,-3.32231 0.27148,-9.44922 l 0.0176,-8.75782 h -16.10156 -16.09961 v -1.95898 -1.95703 h 27.04883 c 24.65473,0 27.14376,-0.0333 28.12109,-0.36328 1.3522,-0.45664 3.75773,-2.82418 4.9375,-4.85938 2.51816,-4.34392 4.19185,-11.0629 4.75977,-19.11718 0.31956,-4.53215 0.10575,-17.11798 -0.34766,-20.48047 -1.3969,-10.35886 -4.84679,-17.79098 -9.16406,-19.74024 -0.76219,-0.34416 -1.78656,-0.39265 -9.57617,-0.45312 z m -18.46875,74.11914 a 8.2037729,8.2037729 0 0 1 8.20313,8.20508 8.2037729,8.2037729 0 0 1 -8.20313,8.20312 8.2037729,8.2037729 0 0 1 -8.20312,-8.20312 8.2037729,8.2037729 0 0 1 8.20312,-8.20508 z"
         style="opacity:1;fill:#e6e6e6;fill-opacity:1;stroke:none;stroke-width:6.30454874;stroke-linejoin:miter;stroke-miterlimit:7;stroke-dasharray:none;stroke-dashoffset:0;stroke-opacity:0"
         inkscape:connector-curvature="0" />
      <path
         transform="scale(0.26458333)"
         id="path1079"
         d="m 223.3418,581.84375 c -5.06238,0.0441 -10.11746,0.29715 -13.07032,0.73828 -9.14333,1.36596 -15.87202,4.58198 -18.02539,8.61719 -0.50103,0.93895 -0.50519,1.01527 -0.57031,9.8125 l -0.0644,8.86523 h 16.21875 16.2207 v 1.95508 1.95313 l -27.14258,0.0586 -27.14062,0.0586 -1.24414,0.61133 c -3.33746,1.63892 -6.44029,7.21669 -7.97461,14.33203 -1.11782,5.18378 -1.22007,6.63023 -1.22266,17.36719 -0.003,10.68737 0.0718,11.83665 1.09571,16.91992 1.66294,8.2557 4.949,14.05211 8.73437,15.40235 v -0.002 c 0.63798,0.22753 2.68298,0.29713 8.93359,0.30469 l 8.10352,0.0117 0.0215,-3.53711 c 0.0114,-1.94457 0.0951,-7.25543 0.1875,-11.80273 0.18787,-9.24601 0.25601,-9.73386 1.78516,-12.87696 1.99508,-4.10082 5.72505,-6.80786 10.95117,-7.94531 1.77132,-0.38559 3.3397,-0.44402 16.42774,-0.62695 32.6452,-0.45676 35.19974,-0.53032 36.79687,-1.04297 1.79457,-0.57604 3.02616,-1.79832 3.56836,-3.54102 0.56416,-1.81311 0.77476,-10.40392 0.70703,-28.9414 l -0.0605,-16.39063 -0.5039,-0.94531 c -2.28172,-4.27574 -9.47745,-7.51973 -19.6211,-8.8457 -2.97985,-0.38945 -8.04895,-0.55383 -13.11132,-0.50977 z M 206.70703,588.5 a 8.2037729,8.2037729 0 0 1 8.20508,8.20508 8.2037729,8.2037729 0 0 1 -8.20508,8.20312 8.2037729,8.2037729 0 0 1 -8.20312,-8.20312 8.2037729,8.2037729 0 0 1 8.20312,-8.20508 z"
         style="opacity:1;fill:#cccccc;fill-opacity:1;stroke:none;stroke-width:6.30454874;stroke-linejoin:miter;stroke-miterlimit:7;stroke-dasharray:none;stroke-dashoffset:0;stroke-opacity:0"
         inkscape:connector-curvature="0" />
    </g>
    <g
       id="g1226"
       transform="matrix(0.72835848,0,0,0.72835848,-18.92076,143.5987)"
       style="fill:#cccccc;fill-opacity:1;stroke-width:1.37295032">
      <g
         id="g1220"
         style="fill:#cccccc;fill-opacity:1;stroke-width:1.37295032">
        <rect
           style="opacity:1;fill:#cccccc;fill-opacity:1;stroke:none;stroke-width:2.05942535;stroke-linejoin:miter;stroke-miterlimit:7;stroke-dasharray:none;stroke-dashoffset:0;stroke-opacity:0"
           id="rect1186"
           width="25.06905"
           height="4.1736298"
           x="-70.25721"
           y="93.584755"
           transform="rotate(-45)" />
        <rect
           style="opacity:1;fill:#cccccc;fill-opacity:1;stroke:none;stroke-width:2.05942535;stroke-linejoin:miter;stroke-miterlimit:7;stroke-dasharray:none;stroke-dashoffset:0;stroke-opacity:0"
           id="rect1186-6"
           width="25.069052"
           height="4.1736298"
           x="72.689331"
           y="45.18816"
           transform="rotate(45)" />
      </g>
      <rect
         y="114.63134"
         x="37.177605"
         height="4.1736298"
         width="25.069054"
         id="rect1186-6-0"
         style="opacity:1;fill:#cccccc;fill-opacity:1;stroke:none;stroke-width:2.05942535;stroke-linejoin:miter;stroke-miterlimit:7;stroke-dasharray:none;stroke-dashoffset:0;stroke-opacity:0" />
    </g>
  </g>
</svg>
